<?xml version="1.0" encoding="iso-8859-1"?>
<!-- Uploaded to: SVG Repo, www.svgrepo.com, Generator: SVG Repo Mixer Tools -->
<svg fill="#000000" height="800px" width="800px" version="1.1" id="Layer_1" xmlns="http://www.w3.org/2000/svg" xmlns:xlink="http://www.w3.org/1999/xlink" 
	 viewBox="0 0 308.847 308.847" xml:space="preserve">
<g>
	<g>
		<g>
			<path d="M61.423,0c-22.607,0-41,18.393-41,41s18.393,41,41,41c22.607,0,41-18.393,41-41S84.031,0,61.423,0z M61.423,64
				c-12.683,0-23-10.318-23-23s10.317-23,23-23c12.683,0,23,10.318,23,23S74.107,64,61.423,64z"/>
			<path d="M279.424,48.983h-152c-4.971,0-9,4.029-9,9c0,4.971,4.029,9,9,9h152c4.971,0,9-4.029,9-9
				C288.424,53.012,284.395,48.983,279.424,48.983z"/>
			<path d="M127.423,33.017h152c4.971,0,9-4.029,9-9c0-4.971-4.029-9-9-9h-152c-4.971,0-9,4.029-9,9
				C118.424,28.988,122.453,33.017,127.423,33.017z"/>
			<path d="M61.423,113.423c-22.607,0-41,18.393-41,41c0,22.607,18.393,41,41,41c22.607,0,41-18.393,41-41
				S84.031,113.423,61.423,113.423z M61.423,177.423c-12.683,0-23-10.318-23-23s10.317-23,23-23c12.683,0,23,10.318,23,23
				S74.107,177.423,61.423,177.423z"/>
			<path d="M279.424,162.406h-152c-4.971,0-9,4.029-9,9s4.029,9,9,9h152c4.971,0,9-4.029,9-9S284.395,162.406,279.424,162.406z"/>
			<path d="M279.424,128.44h-152c-4.971,0-9,4.029-9,9s4.029,9,9,9h152c4.971,0,9-4.029,9-9S284.395,128.44,279.424,128.44z"/>
			<path d="M61.423,226.847c-22.607,0-41,18.393-41,41s18.393,41,41,41c22.607,0,41-18.393,41-41S84.031,226.847,61.423,226.847z
				 M61.423,290.847c-12.683,0-23-10.318-23-23s10.317-23,23-23c12.683,0,23,10.318,23,23S74.107,290.847,61.423,290.847z"/>
			<path d="M279.424,275.83h-152c-4.971,0-9,4.029-9,9s4.029,9,9,9h152c4.971,0,9-4.029,9-9S284.395,275.83,279.424,275.83z"/>
			<path d="M279.424,241.863h-152c-4.971,0-9,4.029-9,9c0,4.971,4.029,9,9,9h152c4.971,0,9-4.029,9-9
				C288.424,245.892,284.395,241.863,279.424,241.863z"/>
			<circle cx="61.423" cy="41" r="8.122"/>
			<circle cx="61.423" cy="154.423" r="8.122"/>
		</g>
	</g>
</g>
</svg>