<?xml version="1.0" encoding="UTF-8" standalone="no"?>
<!DOCTYPE svg PUBLIC "-//W3C//DTD SVG 1.1//EN" "http://www.w3.org/Graphics/SVG/1.1/DTD/svg11.dtd">
<svg width="100%" height="100%" viewBox="0 0 651 651" version="1.1" xmlns="http://www.w3.org/2000/svg" xmlns:xlink="http://www.w3.org/1999/xlink" xml:space="preserve" xmlns:serif="http://www.serif.com/" style="fill-rule:evenodd;clip-rule:evenodd;stroke-linecap:round;stroke-linejoin:round;">
    <g transform="matrix(1,0,0,1,-74.666667,-73.666667)">
        <g transform="matrix(16.666667,0,0,16.666667,0,-1)">
            <path d="M7.5,5.5L40.5,5.5C41.597,5.5 42.5,6.403 42.5,7.5L42.5,40.5C42.5,41.597 41.597,42.5 40.5,42.5L7.5,42.5C6.403,42.5 5.5,41.597 5.5,40.5L5.5,7.5C5.5,6.403 6.403,5.5 7.5,5.5ZM12.5,10.31C12.497,10.31 12.493,10.31 12.49,10.31C11.278,10.31 10.28,11.308 10.28,12.52C10.28,12.523 10.28,12.527 10.28,12.53L10.28,33.53C10.28,34.748 11.282,35.75 12.5,35.75L19.35,35.75C20.564,35.745 21.56,34.744 21.56,33.53L21.56,12.53C21.56,12.527 21.56,12.523 21.56,12.52C21.56,11.308 20.562,10.31 19.35,10.31C19.35,10.31 12.5,10.31 12.5,10.31ZM28.59,10.31C27.372,10.31 26.37,11.312 26.37,12.53L26.37,24.28C26.375,25.496 27.374,26.495 28.59,26.5L35.44,26.5C36.658,26.5 37.66,25.498 37.66,24.28L37.66,12.53C37.66,12.527 37.66,12.523 37.66,12.52C37.66,11.308 36.662,10.31 35.45,10.31C35.447,10.31 35.443,10.31 35.44,10.31L28.59,10.31Z" style="fill:none;fill-rule:nonzero;stroke:white;stroke-width:2.04px;"/>
        </g>
    </g>
</svg>
